<svg xmlns="http://www.w3.org/2000/svg">
	<path fill="#000" d="M63.9,23.4H1.8c-1,0-1.8-0.8-1.8-1.8v-5.3c0-3.9,3.1-7,7-7h7V1.8c0-1,0.8-1.8,1.8-1.8h5.9c1,0,1.8,0.8,1.8,1.8v7.6h18.8V1.8 c0-1,0.8-1.8,1.8-1.8h5.9c1,0,1.8,0.8,1.8,1.8v7.6h7c3.9,0,7,3.1,7,7v5.3C65.6,22.7,64.8,23.4,63.9,23.4z M1.8,28.1h62.1 c1,0,1.8,0.8,1.8,1.8V68c0,3.9-3.1,7-7,7H7c-3.9,0-7-3.1-7-7V29.9C0,28.9,0.8,28.1,1.8,28.1z M50.6,42.2L46.5,38 c-0.7-0.7-1.8-0.7-2.5,0L28.4,53.4l-6.7-6.8c-0.7-0.7-1.8-0.7-2.5,0l-4.2,4.1c-0.7,0.7-0.7,1.8,0,2.5l12.1,12.2 c0.7,0.7,1.8,0.7,2.5,0l20.9-20.8C51.3,44,51.3,42.9,50.6,42.2L50.6,42.2z"/>
	<path fill="#000" d="M72,19.8c0-6.9,3.5-10.4,10.4-10.4h44.5c6.9,0,10.4,3.5,10.4,10.4v44.5c0,6.9-3.5,10.4-10.4,10.4H82.4 c-6.9,0-10.4-3.5-10.4-10.4V19.8z M82.4,13.4c-2.1,0-3.7,0.5-4.7,1.6S76,17.7,76,19.8v44.5c0,2.1,0.5,3.7,1.6,4.7 c1.1,1.1,2.7,1.6,4.7,1.6h44.5c2.1,0,3.7-0.5,4.7-1.6c1.1-1.1,1.6-2.7,1.6-4.7V19.8c0-2.1-0.5-3.7-1.6-4.7 c-1.1-1.1-2.7-1.6-4.7-1.6H82.4z M116.7,57.4h-7.5l-4.5-7.4c-0.3-0.6-0.7-1.1-1-1.5s-0.6-0.8-0.9-1.1c-0.3-0.3-0.6-0.6-1-0.7 c-0.3-0.2-0.7-0.2-1.1-0.2H99v11h-6.5V28.6h10.3c7,0,10.5,2.6,10.5,7.9c0,1-0.2,1.9-0.5,2.8c-0.3,0.9-0.7,1.6-1.3,2.3 c-0.6,0.7-1.2,1.3-2,1.8c-0.8,0.5-1.7,0.9-2.7,1.2v0.1c0.4,0.1,0.9,0.3,1.3,0.6c0.4,0.3,0.8,0.7,1.2,1.1c0.4,0.4,0.7,0.8,1.1,1.3 c0.3,0.5,0.6,0.9,0.9,1.3L116.7,57.4z M99,33.4v8h2.8c1.4,0,2.5-0.4,3.4-1.2c0.9-0.8,1.3-1.8,1.3-3c0-2.5-1.5-3.8-4.5-3.8H99z"/>
	<path fill="#000" d="M142.8,19.8c0-6.9,3.5-10.4,10.4-10.4h44.5c6.9,0,10.4,3.5,10.4,10.4v44.5c0,6.9-3.5,10.4-10.4,10.4h-44.5 c-6.9,0-10.4-3.5-10.4-10.4V19.8z M153.2,13.4c-2.1,0-3.7,0.5-4.7,1.6c-1.1,1.1-1.6,2.7-1.6,4.7v44.5c0,2.1,0.5,3.7,1.6,4.7 c1.1,1.1,2.7,1.6,4.7,1.6h44.5c2.1,0,3.7-0.5,4.7-1.6c1.1-1.1,1.6-2.7,1.6-4.7V19.8c0-2.1-0.5-3.7-1.6-4.7 c-1.1-1.1-2.7-1.6-4.7-1.6H153.2z M185.4,48.9H172c0.2,3,2.1,4.5,5.6,4.5c2.3,0,4.3-0.5,6-1.6v4.6c-1.9,1-4.4,1.5-7.4,1.5 c-3.3,0-5.9-0.9-7.8-2.8c-1.8-1.8-2.8-4.4-2.8-7.7c0-3.4,1-6.1,3-8.1c2-2,4.4-3,7.3-3c3,0,5.3,0.9,7,2.7c1.6,1.8,2.5,4.2,2.5,7.3 V48.9z M179.5,45c0-2.9-1.2-4.4-3.6-4.4c-1,0-1.9,0.4-2.7,1.3c-0.7,0.8-1.2,1.9-1.4,3.2H179.5z"/>
	<path fill="#000" d="M213.6,19.8c0-6.9,3.5-10.4,10.4-10.4h44.5c6.9,0,10.4,3.5,10.4,10.4v44.5c0,6.9-3.5,10.4-10.4,10.4H224 c-6.9,0-10.4-3.5-10.4-10.4V19.8z M224,13.4c-2.1,0-3.7,0.5-4.7,1.6s-1.6,2.7-1.6,4.7v44.5c0,2.1,0.5,3.7,1.6,4.7 c1.1,1.1,2.7,1.6,4.7,1.6h44.5c2.1,0,3.7-0.5,4.7-1.6c1.1-1.1,1.6-2.7,1.6-4.7V19.8c0-2.1-0.5-3.7-1.6-4.7 c-1.1-1.1-2.7-1.6-4.7-1.6H224z M242.4,47.4v9.9h-6.5V28.5h10.2c7.3,0,10.9,3.1,10.9,9.2c0,2.9-1,5.2-3.1,7 c-2.1,1.8-4.9,2.7-8.4,2.7H242.4z M242.4,33.5v9h2.6c3.5,0,5.2-1.5,5.2-4.6c0-2.9-1.7-4.4-5.2-4.4H242.4z"/>
</svg>
