<?xml version="1.0" encoding="UTF-8" standalone="no"?>
<svg
   version="1.1"
   id="svg10"
   sodipodi:docname="rep-logo.svg"
   width="278.89999"
   height="75"
   inkscape:version="1.2 (dc2aedaf03, 2022-05-15)"
   xmlns:inkscape="http://www.inkscape.org/namespaces/inkscape"
   xmlns:sodipodi="http://sodipodi.sourceforge.net/DTD/sodipodi-0.dtd"
   xmlns="http://www.w3.org/2000/svg"
   xmlns:svg="http://www.w3.org/2000/svg">
  <defs
     id="defs14" />
  <sodipodi:namedview
     id="namedview12"
     pagecolor="#ffffff"
     bordercolor="#000000"
     borderopacity="0.25"
     inkscape:showpageshadow="2"
     inkscape:pageopacity="0.0"
     inkscape:pagecheckerboard="0"
     inkscape:deskcolor="#d1d1d1"
     showgrid="false"
     inkscape:zoom="1.5733333"
     inkscape:cx="150.3178"
     inkscape:cy="75.317797"
     inkscape:window-width="1920"
     inkscape:window-height="1129"
     inkscape:window-x="1192"
     inkscape:window-y="702"
     inkscape:window-maximized="1"
     inkscape:current-layer="svg10" />
  <path
     fill="#000000"
     d="M 63.9,23.4 H 1.8 C 0.8,23.4 0,22.6 0,21.6 v -5.3 c 0,-3.9 3.1,-7 7,-7 h 7 V 1.8 C 14,0.8 14.8,0 15.8,0 h 5.9 c 1,0 1.8,0.8 1.8,1.8 V 9.4 H 42.3 V 1.8 C 42.3,0.8 43.1,0 44.1,0 H 50 c 1,0 1.8,0.8 1.8,1.8 v 7.6 h 7 c 3.9,0 7,3.1 7,7 v 5.3 c -0.2,1 -1,1.7 -1.9,1.7 z M 1.8,28.1 h 62.1 c 1,0 1.8,0.8 1.8,1.8 V 68 c 0,3.9 -3.1,7 -7,7 H 7 C 3.1,75 0,71.9 0,68 V 29.9 c 0,-1 0.8,-1.8 1.8,-1.8 z M 50.6,42.2 46.5,38 C 45.8,37.3 44.7,37.3 44,38 L 28.4,53.4 21.7,46.6 c -0.7,-0.7 -1.8,-0.7 -2.5,0 L 15,50.7 c -0.7,0.7 -0.7,1.8 0,2.5 l 12.1,12.2 c 0.7,0.7 1.8,0.7 2.5,0 L 50.5,44.6 c 0.8,-0.6 0.8,-1.7 0.1,-2.4 z"
     id="path2" />
  <path
     fill="#000000"
     d="M 72,19.8 C 72,12.9 75.5,9.4 82.4,9.4 h 44.5 c 6.9,0 10.4,3.5 10.4,10.4 v 44.5 c 0,6.9 -3.5,10.4 -10.4,10.4 H 82.4 C 75.5,74.7 72,71.2 72,64.3 Z m 10.4,-6.4 c -2.1,0 -3.7,0.5 -4.7,1.6 -1,1.1 -1.7,2.7 -1.7,4.8 v 44.5 c 0,2.1 0.5,3.7 1.6,4.7 1.1,1.1 2.7,1.6 4.7,1.6 h 44.5 c 2.1,0 3.7,-0.5 4.7,-1.6 1.1,-1.1 1.6,-2.7 1.6,-4.7 V 19.8 c 0,-2.1 -0.5,-3.7 -1.6,-4.7 -1.1,-1.1 -2.7,-1.6 -4.7,-1.6 H 82.4 Z m 34.3,44 h -7.5 L 104.7,50 c -0.3,-0.6 -0.7,-1.1 -1,-1.5 -0.3,-0.4 -0.6,-0.8 -0.9,-1.1 -0.3,-0.3 -0.6,-0.6 -1,-0.7 -0.3,-0.2 -0.7,-0.2 -1.1,-0.2 H 99 v 11 H 92.5 V 28.6 h 10.3 c 7,0 10.5,2.6 10.5,7.9 0,1 -0.2,1.9 -0.5,2.8 -0.3,0.9 -0.7,1.6 -1.3,2.3 -0.6,0.7 -1.2,1.3 -2,1.8 -0.8,0.5 -1.7,0.9 -2.7,1.2 v 0.1 c 0.4,0.1 0.9,0.3 1.3,0.6 0.4,0.3 0.8,0.7 1.2,1.1 0.4,0.4 0.7,0.8 1.1,1.3 0.3,0.5 0.6,0.9 0.9,1.3 z M 99,33.4 v 8 h 2.8 c 1.4,0 2.5,-0.4 3.4,-1.2 0.9,-0.8 1.3,-1.8 1.3,-3 0,-2.5 -1.5,-3.8 -4.5,-3.8 z"
     id="path4" />
  <path
     fill="#000000"
     d="m 142.8,19.8 c 0,-6.9 3.5,-10.4 10.4,-10.4 h 44.5 c 6.9,0 10.4,3.5 10.4,10.4 v 44.5 c 0,6.9 -3.5,10.4 -10.4,10.4 h -44.5 c -6.9,0 -10.4,-3.5 -10.4,-10.4 z m 10.4,-6.4 c -2.1,0 -3.7,0.5 -4.7,1.6 -1.1,1.1 -1.6,2.7 -1.6,4.7 v 44.5 c 0,2.1 0.5,3.7 1.6,4.7 1.1,1.1 2.7,1.6 4.7,1.6 h 44.5 c 2.1,0 3.7,-0.5 4.7,-1.6 1.1,-1.1 1.6,-2.7 1.6,-4.7 V 19.8 c 0,-2.1 -0.5,-3.7 -1.6,-4.7 -1.1,-1.1 -2.7,-1.6 -4.7,-1.6 h -44.5 z m 32.2,35.5 H 172 c 0.2,3 2.1,4.5 5.6,4.5 2.3,0 4.3,-0.5 6,-1.6 v 4.6 c -1.9,1 -4.4,1.5 -7.4,1.5 -3.3,0 -5.9,-0.9 -7.8,-2.8 -1.8,-1.8 -2.8,-4.4 -2.8,-7.7 0,-3.4 1,-6.1 3,-8.1 2,-2 4.4,-3 7.3,-3 3,0 5.3,0.9 7,2.7 1.6,1.8 2.5,4.2 2.5,7.3 z M 179.5,45 c 0,-2.9 -1.2,-4.4 -3.6,-4.4 -1,0 -1.9,0.4 -2.7,1.3 -0.7,0.8 -1.2,1.9 -1.4,3.2 h 7.7 z"
     id="path6" />
  <path
     fill="#000000"
     d="m 213.6,19.8 c 0,-6.9 3.5,-10.4 10.4,-10.4 h 44.5 c 6.9,0 10.4,3.5 10.4,10.4 v 44.5 c 0,6.9 -3.5,10.4 -10.4,10.4 H 224 c -6.9,0 -10.4,-3.5 -10.4,-10.4 z M 224,13.4 c -2.1,0 -3.7,0.5 -4.7,1.6 -1,1.1 -1.6,2.7 -1.6,4.7 v 44.5 c 0,2.1 0.5,3.7 1.6,4.7 1.1,1.1 2.7,1.6 4.7,1.6 h 44.5 c 2.1,0 3.7,-0.5 4.7,-1.6 1.1,-1.1 1.6,-2.7 1.6,-4.7 V 19.8 c 0,-2.1 -0.5,-3.7 -1.6,-4.7 -1.1,-1.1 -2.7,-1.6 -4.7,-1.6 H 224 Z m 18.4,34 v 9.9 h -6.5 V 28.5 h 10.2 c 7.3,0 10.9,3.1 10.9,9.2 0,2.9 -1,5.2 -3.1,7 -2.1,1.8 -4.9,2.7 -8.4,2.7 z m 0,-13.9 v 9 h 2.6 c 3.5,0 5.2,-1.5 5.2,-4.6 0,-2.9 -1.7,-4.4 -5.2,-4.4 z"
     id="path8" />
</svg>
