<svg id="Layer_1" data-name="Layer 1" xmlns="http://www.w3.org/2000/svg" viewBox="0 0 790.63 198.95"><defs><style>.cls-1{fill:#231f20;}</style></defs><title>Logo_B&amp;amp;W_standard</title><path class="cls-1" d="M355,358.22V368.8q-14.5,12.38-21.24,12.38-3.89,0-5.37-2.88t-2.17-11.73q-16.54,14.61-32.84,14.61a26.37,26.37,0,0,1-20.07-8.81A30.2,30.2,0,0,1,265.14,351q0-19.43,15.85-30.64t45.27-12.89V292.33Q326.25,268,303,268q-14.82,0-32,14.87v-13q17.8-12.58,33.88-12.58,14.26,0,23.49,8t9.24,23.16V362.8q0,6.1,2.51,6.1Q343.27,368.9,355,358.22Zm-28.78-2.76V318.13q-21.49-.9-35.65,8.63T276.46,351.1a18.74,18.74,0,0,0,5.91,14,20.41,20.41,0,0,0,14.78,5.71Q311.47,370.84,326.25,355.47Z" transform="translate(-25.63 -198.16)"/><path class="cls-1" d="M383.69,198.16V378.6H372.38V198.16Z" transform="translate(-25.63 -198.16)"/><path class="cls-1" d="M435.28,220.47v39.45H464.7v10.35H435.28v70.79q0,17.09,2.44,22.46t13.11,5.37q8.17,0,19.06-5.82v12.15q-11.05,6-21.65,6a24,24,0,0,1-17.32-6.72Q424,367.74,424,355.85V270.27H395.82V259.92H424V231.6l7.74-11.13Z" transform="translate(-25.63 -198.16)"/><path class="cls-1" d="M568.67,358.22V368.8q-14.5,12.38-21.24,12.38-3.89,0-5.37-2.88t-2.17-11.73q-16.54,14.61-32.84,14.61A26.37,26.37,0,0,1,487,372.37,30.19,30.19,0,0,1,478.78,351q0-19.43,15.85-30.64t45.27-12.89V292.33q0-24.31-23.26-24.32-14.82,0-32,14.87v-13q17.79-12.58,33.88-12.58,14.26,0,23.49,8t9.24,23.16V362.8q0,6.1,2.51,6.1Q556.91,368.9,568.67,358.22Zm-28.78-2.76V318.13q-21.5-.9-35.65,8.63T490.09,351.1a18.74,18.74,0,0,0,5.91,14,20.41,20.41,0,0,0,14.78,5.71Q525.11,370.84,539.89,355.47Z" transform="translate(-25.63 -198.16)"/><path class="cls-1" d="M597.33,198.16v21.67H586V198.16Zm0,61.76V378.6H586V259.92Z" transform="translate(-25.63 -198.16)"/><path class="cls-1" d="M700.33,271.31l-6.45,11.9q-13-13.58-20.94-13.58-15.63,0-33.4,34.16V378.6H628.22V259.92h11.32v31.26H640q18.67-33.85,36.45-33.85Q686.62,257.34,700.33,271.31Z" transform="translate(-25.63 -198.16)"/><path class="cls-1" d="M724.58,198.16v21.67H713.26V198.16Zm0,61.76V378.6H713.26V259.92Z" transform="translate(-25.63 -198.16)"/><path class="cls-1" d="M813,267.36v13.58q-15.93-12-28.67-12a23,23,0,0,0-15.94,5.81,18.49,18.49,0,0,0-6.48,14.34,17.83,17.83,0,0,0,4,11.18q3.95,5.11,21.7,12.93T810.8,329.5a33.81,33.81,0,0,1,5.46,18.78,31.21,31.21,0,0,1-9.88,23.39q-9.88,9.52-24.41,9.52-15.79,0-31.35-11V357.9q18.55,11,32.89,11,9.67,0,15.87-5.86a19.68,19.68,0,0,0,6.21-15,18.39,18.39,0,0,0-4.09-11.52q-4.09-5.27-21.88-13.29t-23.07-15.86A30.44,30.44,0,0,1,751.26,290a31,31,0,0,1,9.84-23.12A33.16,33.16,0,0,1,785,257.34Q797.9,257.34,813,267.36Z" transform="translate(-25.63 -198.16)"/><path class="cls-1" d="M48.37,239.77l-.17.13-.15.16a102.76,102.76,0,0,0-15.66,23.11c-14.64,29.82,2.17,57,2.89,58.17l4.58-1.71a67.61,67.61,0,0,1-.55-9.06,63.83,63.83,0,0,1,3.12-20.5c2.8-8,8.68-16.7,13.29-22.8a89.79,89.79,0,0,0-1,12.79,73.09,73.09,0,0,0,.44,8.09c1.81,16.28,7,20.33,7.57,20.73l3.55,2.48L66.7,307c1.12-13,5.71-34.86,13.27-38.3a12.35,12.35,0,0,1,10-.36l2.3,1.11,1.07-2.32,11-24.34,5.9,28.57,1.14.53c.12.06,12.3,5.78,16.55,11.42,7.45,9.94,12,24.79,12.05,24.94l2.26,7.45,2.5-7.38c.11-.32,1.58-4.84,1.58-13.06a89.87,89.87,0,0,0-3.55-24c-1.4-5-2.5-10-3.34-14.21a126.67,126.67,0,0,1,12.89,29.06c1.63,5.28,2.15,10.42,2.75,16.38a151.47,151.47,0,0,0,7.28,35.86c8.37,25.29,14.28,34,14.53,34.34l4.28,6.18.27-7.51c.11-2.92.15-5.39.15-7.57,0-5.79-.33-9.54-.74-14.23l-1.16-17.13c0-.24,0-.5,0-.76,0-3.82,1.11-9.61,2.17-14.29,2.39,6.22,5.69,15.13,7.58,21.58l3.43,12.87c2.86,11.37,5.56,22.1,13.41,36.31l3.09,5.59,1.53-6.21s1.29-5.05,9.07-21.47a70.47,70.47,0,0,0,5.31-14.89A58.62,58.62,0,0,1,231,368l4.91-.94c-3.28-17-10.23-24.27-10.52-24.57l-4.71-4.8.44,6.74s0,.09,0,.26c0,1.34-.31,7.88-5.67,19.23-3.75,7.91-6,13.17-7.36,16.66-5.44-11-7.86-20-10.37-30l-3.48-13.06c-3.25-11-10.29-28.59-10.59-29.34l-2.75-6.84-2,7.1c-.18.64-4.23,15.27-4.23,23.26,0,.32,0,.62,0,.92L175.88,350c.35,4,.61,7.17.69,11.35a233.92,233.92,0,0,1-9.46-24.56A145.2,145.2,0,0,1,160.05,302c-.63-6.23-1.17-11.6-2.94-17.36-8.11-26.32-19.68-39.2-20.17-39.73l-5.4-5.92,1.08,7.94A215.8,215.8,0,0,0,138,272.61a84.78,84.78,0,0,1,3.35,22.65c0,.75-.06,1.3-.08,2a82.06,82.06,0,0,0-9.3-16.9c-4.22-5.62-14-10.77-17.29-12.4l-8.51-41.18L89.69,263.06a17.63,17.63,0,0,0-11.79,1.12c-9.49,4.32-13.65,23.85-15.28,35a52,52,0,0,1-2.43-11.56,67.51,67.51,0,0,1-.4-7.44,87,87,0,0,1,2.84-21.73L58.37,256c-.63.7-15.4,17.29-20.65,32.37a65.37,65.37,0,0,0-3.31,18.35,60.68,60.68,0,0,1-2.9-18.17,52.18,52.18,0,0,1,5.36-23.22,99.25,99.25,0,0,1,14.66-21.72c2.39-1.72,49.68-35,104.19-18.23,69.24,21.35,97.09,76.45,97.36,77l4.48-2.21c-.28-.57-29-57.56-100.37-79.58C99.06,202.73,48.87,239.4,48.37,239.77Z" transform="translate(-25.63 -198.16)"/><path class="cls-1" d="M26.86,221.27a2.5,2.5,0,0,0-1,3c5,13.14,5.38,15.71,4.82,21-.35,3.43.41,6.2,2.26,8.24a10.26,10.26,0,0,0,7.22,3.1,2.49,2.49,0,0,0,2.47-2.49h0a2.51,2.51,0,0,0-2.48-2.5,5.39,5.39,0,0,1-3.53-1.48,4.81,4.81,0,0,1-1-3.29,10.22,10.22,0,0,1,.06-1.05,33.78,33.78,0,0,0,.21-3.56,32.72,32.72,0,0,0-1.86-9.92l11.49,10.9A2.5,2.5,0,0,0,49,239.57l-19-18A2.5,2.5,0,0,0,26.86,221.27Z" transform="translate(-25.63 -198.16)"/><path class="cls-1" d="M112.06,280.1a2.5,2.5,0,0,0,1.18,3.33c7,3.35,10.29,10.16,11.79,15.29,3,10.29,1.28,21.19-1.87,26.22-9,14.46-24,23.67-47,29a2.5,2.5,0,1,0,1.12,4.87c24.36-5.62,40.27-15.53,50.06-31.19,4.45-7.12,5.47-19.85,2.43-30.27-2.56-8.76-7.55-15.12-14.44-18.4A2.5,2.5,0,0,0,112.06,280.1Z" transform="translate(-25.63 -198.16)"/><path class="cls-1" d="M29.56,324.11c-5.38,44.88-3.91,46.76-3.21,47.66s.6,1.74.18,3.93a15.05,15.05,0,0,0,.89,10.19C29.48,390.22,36.73,393,45.3,396l1.43.5c8.68,3,21.32-5.64,21.44-5.73l4-2.33c3.68-2,7.48-4,8.67-7.18a5.08,5.08,0,0,0,.31-1.79c0-3.31-2.7-7.08-4.64-9.38l10.76-14a2.5,2.5,0,1,0-4-3.05L70,370.36l1.48,1.55c2.65,2.78,5,6.54,4.7,7.59-.52,1.4-3.89,3.2-6.34,4.51l-4.52,2.63c-4.26,3-12.6,6.62-16.95,5.11l-1.44-.5c-4.44-1.53-13.67-4.72-15-7.5a8.7,8.7,0,0,1-.9-3.85,17.23,17.23,0,0,1,.41-3.26,17.51,17.51,0,0,0,.42-3.33,7.38,7.38,0,0,0-1.24-4,9.2,9.2,0,0,1-.1-1.64c0-6.06,1.89-25.4,4-43a2.39,2.39,0,0,0,0-.3,2.5,2.5,0,0,0-5-.29Z" transform="translate(-25.63 -198.16)"/><path class="cls-1" d="M45.43,375.39a2.5,2.5,0,0,0,2,4.56,4.9,4.9,0,0,1,3-.38c.15.06.31.15.47.54,1.22,3-.5,4.38-1.05,4.72a2.52,2.52,0,0,0-.85,3.42,2.48,2.48,0,0,0,3.37.9c2.13-1.22,5.52-5.06,3.17-10.91a5.79,5.79,0,0,0-3.24-3.3C49.3,373.73,45.82,375.21,45.43,375.39Z" transform="translate(-25.63 -198.16)"/><path class="cls-1" d="M77.2,302.92a7.42,7.42,0,0,0-6.44,7.75c0,.13,0,.7,0,.84a15.31,15.31,0,0,1-3.19,8.62l0,.05a2.5,2.5,0,0,0,3.87,3.16l0-.06h0l3.49-4.39A19.65,19.65,0,0,1,79.32,315c1.87-1.3,4-2.76,4-6a9,9,0,0,0-.1-1.33A5.36,5.36,0,0,0,77.2,302.92Zm-1.44,7.95c0-.07,0-.13,0-.19,0-1.89,1.16-2.71,1.91-2.78.4,0,.5.05.57.5a4.67,4.67,0,0,1,.07.64c0,.59-.34.85-1.84,1.9-.2.14-.47.36-.69.52Q75.77,311.16,75.76,310.87Z" transform="translate(-25.63 -198.16)"/><path class="cls-1" d="M123.13,336.43a2.5,2.5,0,0,0-.91,3.41,54.11,54.11,0,0,0,7.11,9.34c6,6.75,12.26,13.73,17.44,40.94a2.5,2.5,0,0,0,4.91-.94c-5.44-28.57-12.44-36.41-18.62-43.33a49.45,49.45,0,0,1-6.51-8.51A2.5,2.5,0,0,0,123.13,336.43Z" transform="translate(-25.63 -198.16)"/></svg>